<svg width="50" height="48" viewBox="0 0 50 48" fill="none" xmlns="http://www.w3.org/2000/svg">
<path d="M22.5 16.8H27.5V12H22.5M25 43.2C13.975 43.2 5 34.584 5 24C5 13.416 13.975 4.8 25 4.8C36.025 4.8 45 13.416 45 24C45 34.584 36.025 43.2 25 43.2ZM25 0C21.717 0 18.4661 0.620779 15.4329 1.82689C12.3998 3.033 9.6438 4.80083 7.32233 7.02944C2.63392 11.5303 0 17.6348 0 24C0 30.3652 2.63392 36.4697 7.32233 40.9706C9.6438 43.1992 12.3998 44.967 15.4329 46.1731C18.4661 47.3792 21.717 48 25 48C31.6304 48 37.9893 45.4714 42.6777 40.9706C47.3661 36.4697 50 30.3652 50 24C50 20.8483 49.3534 17.7274 48.097 14.8156C46.8406 11.9038 44.9991 9.25804 42.6777 7.02944C40.3562 4.80083 37.6002 3.033 34.5671 1.82689C31.5339 0.620779 28.283 0 25 0ZM22.5 36H27.5V21.6H22.5V36Z" fill="black"/>
</svg>
