<?xml version="1.0" encoding="UTF-8" standalone="no"?>
<!DOCTYPE svg PUBLIC "-//W3C//DTD SVG 1.1//EN" "http://www.w3.org/Graphics/SVG/1.1/DTD/svg11.dtd">
<svg width="100%" height="100%" viewBox="0 0 449 449" version="1.1" xmlns="http://www.w3.org/2000/svg" xmlnsxlink="http://www.w3.org/1999/xlink" xmlspace="preserve" xmlnsserif="http://www.serif.com/" style="fill-rule:evenodd;clip-rule:evenodd;stroke-linejoin:round;stroke-miterlimit:2;">
    <g transform="matrix(1.19821,0,0,1.19821,-44.4945,-44.4998)">
        <path d="M206.765,270.132L143.334,270.132C139.581,270.132 136.541,273.172 136.541,276.925L136.541,375.409C136.541,379.163 139.581,382.202 143.334,382.202L206.765,382.202C210.518,382.202 213.553,379.163 213.553,375.409L213.553,276.921C213.553,273.167 210.514,270.132 206.765,270.132ZM305.666,66.802L242.236,66.802C238.482,66.802 235.442,69.842 235.442,73.596L235.442,375.404C235.442,379.158 238.482,382.198 242.236,382.198L305.666,382.198C309.419,382.198 312.459,379.158 312.459,375.404L312.459,73.596C312.459,69.842 309.419,66.802 305.666,66.802ZM405.074,158.493L341.644,158.493C337.89,158.493 334.851,161.532 334.851,165.286L334.851,375.404C334.851,379.158 337.89,382.198 341.644,382.198L405.07,382.198C408.823,382.198 411.863,379.158 411.863,375.404L411.863,165.286C411.863,161.537 408.824,158.493 405.074,158.493ZM107.356,158.493L43.926,158.493C40.172,158.493 37.132,161.532 37.132,165.286L37.132,375.404C37.132,379.158 40.172,382.198 43.926,382.198L107.356,382.198C111.11,382.198 114.149,379.158 114.149,375.404L114.149,165.286C114.149,161.537 111.11,158.493 107.356,158.493Z" style="fill-rule:nonzero;"/>
    </g>
</svg>
