<svg width="449" height="449" viewBox="0 0 449 449" fill="none" xmlns="http://www.w3.org/2000/svg">
<path d="M206.765 270.132H143.334C139.581 270.132 136.541 273.172 136.541 276.925V375.409C136.541 379.163 139.581 382.202 143.334 382.202H206.765C210.518 382.202 213.553 379.163 213.553 375.409V276.921C213.553 273.167 210.514 270.132 206.765 270.132ZM305.666 66.8022H242.236C238.482 66.8022 235.442 69.842 235.442 73.5956V375.404C235.442 379.158 238.482 382.198 242.236 382.198H305.666C309.419 382.198 312.459 379.158 312.459 375.404V73.5956C312.459 69.842 309.419 66.8022 305.666 66.8022ZM405.074 158.493H341.644C337.89 158.493 334.851 161.532 334.851 165.286V375.404C334.851 379.158 337.89 382.198 341.644 382.198H405.07C408.823 382.198 411.863 379.158 411.863 375.404V165.286C411.863 161.537 408.824 158.493 405.074 158.493ZM107.356 158.493H43.9257C40.1721 158.493 37.1323 161.532 37.1323 165.286V375.404C37.1323 379.158 40.1721 382.198 43.9257 382.198H107.356C111.11 382.198 114.149 379.158 114.149 375.404V165.286C114.149 161.537 111.11 158.493 107.356 158.493Z" fill="black"/>
</svg>
