<svg width="63" height="48" viewBox="0 0 63 48" fill="none" xmlns="http://www.w3.org/2000/svg">
<path d="M53.306 3.98909C49.3158 2.12958 44.9957 0.779934 40.4956 0.000137958C40.4561 -0.00112352 40.4169 0.00627879 40.3806 0.0218246C40.3443 0.0373703 40.3119 0.060682 40.2856 0.090115C39.7456 1.07986 39.1156 2.36952 38.6956 3.35926C33.9224 2.63945 29.0683 2.63945 24.2952 3.35926C23.8751 2.33953 23.2451 1.07986 22.6751 0.090115C22.6451 0.0301307 22.5551 0.000137958 22.4651 0.000137958C17.965 0.779934 13.6749 2.12958 9.65476 3.98909C9.62476 3.98909 9.59476 4.01909 9.56475 4.04908C1.40453 16.2559 -0.845531 28.1328 0.2645 39.8897C0.2645 39.9497 0.2945 40.0097 0.354502 40.0397C5.75465 43.9986 10.9448 46.398 16.0749 47.9876C16.1649 48.0176 16.2549 47.9876 16.2849 47.9276C17.485 46.278 18.565 44.5385 19.495 42.709C19.555 42.589 19.495 42.469 19.375 42.439C17.665 41.7792 16.0449 40.9994 14.4549 40.0996C14.3349 40.0397 14.3349 39.8597 14.4249 39.7697C14.7549 39.5298 15.0849 39.2599 15.4149 39.0199C15.4749 38.9599 15.5649 38.9599 15.6249 38.9899C25.9452 43.6987 37.0755 43.6987 47.2758 38.9899C47.3358 38.9599 47.4258 38.9599 47.4858 39.0199C47.8158 39.2899 48.1458 39.5298 48.4758 39.7997C48.5958 39.8897 48.5958 40.0696 48.4458 40.1296C46.8858 41.0594 45.2357 41.8092 43.5257 42.469C43.4057 42.499 43.3757 42.649 43.4057 42.7389C44.3657 44.5685 45.4457 46.308 46.6158 47.9576C46.7058 47.9876 46.7958 48.0176 46.8858 47.9876C52.0459 46.398 57.2361 43.9986 62.6362 40.0397C62.6962 40.0097 62.7262 39.9497 62.7262 39.8897C64.0462 26.3032 60.5361 14.5163 53.426 4.04908C53.396 4.01909 53.366 3.98909 53.306 3.98909ZM21.0551 32.7216C17.965 32.7216 15.3849 29.8723 15.3849 26.3632C15.3849 22.8542 17.905 20.0049 21.0551 20.0049C24.2352 20.0049 26.7552 22.8841 26.7252 26.3632C26.7252 29.8723 24.2052 32.7216 21.0551 32.7216ZM41.9656 32.7216C38.8756 32.7216 36.2955 29.8723 36.2955 26.3632C36.2955 22.8542 38.8156 20.0049 41.9656 20.0049C45.1457 20.0049 47.6658 22.8841 47.6358 26.3632C47.6358 29.8723 45.1457 32.7216 41.9656 32.7216Z" fill="black"/>
</svg>
