<svg width="49" height="48" viewBox="0 0 49 48" fill="none" xmlns="http://www.w3.org/2000/svg">
<path d="M24.5 0C21.2826 0 18.0967 0.63619 15.1243 1.87225C12.1518 3.1083 9.45092 4.92002 7.17588 7.20396C2.58124 11.8166 0 18.0726 0 24.5958C0 35.4672 7.0315 44.6907 16.758 47.9619C17.983 48.1587 18.375 47.3962 18.375 46.7321V42.5754C11.5885 44.0512 10.143 39.2796 10.143 39.2796C9.016 36.4264 7.4235 35.664 7.4235 35.664C5.194 34.139 7.595 34.1882 7.595 34.1882C10.045 34.3604 11.3435 36.7216 11.3435 36.7216C13.475 40.4602 17.0765 39.3534 18.473 38.7631C18.6935 37.1643 19.3305 36.0821 20.0165 35.4672C14.5775 34.8523 8.869 32.7371 8.869 23.3661C8.869 20.6359 9.8 18.4469 11.3925 16.7006C11.1475 16.0857 10.29 13.5277 11.6375 10.2073C11.6375 10.2073 13.6955 9.54319 18.375 12.7161C20.3105 12.1749 22.4175 11.9044 24.5 11.9044C26.5825 11.9044 28.6895 12.1749 30.625 12.7161C35.3045 9.54319 37.3625 10.2073 37.3625 10.2073C38.71 13.5277 37.8525 16.0857 37.6075 16.7006C39.2 18.4469 40.131 20.6359 40.131 23.3661C40.131 32.7617 34.398 34.8277 28.9345 35.4426C29.8165 36.2051 30.625 37.7054 30.625 39.9928V46.7321C30.625 47.3962 31.017 48.1833 32.2665 47.9619C41.993 44.6661 49 35.4672 49 24.5958C49 21.3659 48.3663 18.1675 47.1351 15.1834C45.9038 12.1993 44.0992 9.48789 41.8241 7.20396C39.5491 4.92002 36.8482 3.1083 33.8757 1.87225C30.9033 0.63619 27.7174 0 24.5 0Z" fill="black"/>
</svg>
