<?xml version="1.0" encoding="UTF-8" standalone="no"?>
<!DOCTYPE svg PUBLIC "-//W3C//DTD SVG 1.1//EN" "http://www.w3.org/Graphics/SVG/1.1/DTD/svg11.dtd">
<svg width="100%" height="100%" viewBox="0 0 256 256" version="1.1" xmlns="http://www.w3.org/2000/svg" xmlnsxlink="http://www.w3.org/1999/xlink" xmlspace="preserve" xmlnsserif="http://www.serif.com/" style="fill-rule:evenodd;clip-rule:evenodd;stroke-linejoin:round;stroke-miterlimit:2;">
    <g transform="matrix(1.06928,0,0,1.06928,-7.14765,-9.00227)">
        <path d="M97.274,10.091L90.866,107.623L36.761,47.11L59.542,127.555L13.269,123.284L40.322,175.254L9.709,179.524L49.681,212.389C48.29,206.455 47.585,200.381 47.579,194.286L37.097,193.436L37.851,184.123L48.119,184.955C49.161,176.012 51.737,167.315 55.736,159.248L35.496,144.703L40.95,137.115L60.4,151.095C65.186,143.782 71.147,137.31 78.044,131.94L64.179,106.835L72.359,102.318L85.781,126.622C93.329,122.067 101.592,118.818 110.221,117.013L103.745,71.579L112.996,70.26L119.466,115.652C121.758,115.452 124.076,115.342 126.419,115.342L126.421,115.342C128.486,115.342 130.533,115.424 132.559,115.58L135.846,84.193L145.139,85.165L141.822,116.85C148.391,118.148 154.768,120.278 160.797,123.19L169.982,104.821L178.339,109L168.966,127.746C173.372,130.559 177.49,133.798 181.261,137.417L204.526,111.359L211.497,117.582L187.644,144.301C191.811,149.364 195.33,154.926 198.122,160.859L214.607,149.673L219.854,157.405L201.657,169.753C203.611,175.702 204.841,181.864 205.321,188.106L215.118,186.511L216.619,195.735L205.474,197.549C205.246,202.964 204.457,208.341 203.121,213.594L243.571,181.659L215.451,178.811L242.468,136.097L212.603,140.723L232.537,88.939L188.397,106.908L204.772,48.533L156.362,104.061L147.819,20.057L126.462,74.161L97.274,10.089L97.274,10.091ZM126.419,124.687C87.931,124.688 56.922,155.697 56.922,194.185C56.922,210.759 62.688,225.957 72.314,237.928L7.041,214.918L6.685,214.918L6.685,246.161L80.096,246.161L80.098,246.163L94.898,246.163C94.897,246.163 94.896,246.162 94.895,246.161L95.669,246.161L94.134,245.62C79.913,235.469 70.644,218.832 70.644,200.025C70.644,169.169 95.531,143.96 126.419,143.96C157.307,143.96 182.484,169.137 182.484,200.025C182.484,218.779 173.174,235.355 158.959,245.51L157.114,246.161L158.038,246.161L158.035,246.163L172.747,246.163C172.748,246.163 172.749,246.161 172.749,246.161L246.099,246.161L246.099,214.917L245.741,214.917L180.644,237.866C190.341,225.895 196.209,210.715 196.209,194.186C196.209,155.72 164.909,124.689 126.42,124.688L126.418,124.688L126.419,124.687Z" style="fill-rule:nonzero;"/>
    </g>
    <rect id="Artboard1" x="0" y="0" width="256" height="256" style="fill:none;"/>
</svg>
