<svg width="256" height="256" viewBox="0 0 256 256" fill="none" xmlns="http://www.w3.org/2000/svg">
<path d="M97.2736 10.091L90.8661 107.623L36.7611 47.11L59.5421 127.555L13.2686 123.284L40.3216 175.254L9.70907 179.524L49.6806 212.389C48.2901 206.455 47.5849 200.381 47.5786 194.286L37.0971 193.436L37.8511 184.123L48.1191 184.955C49.1607 176.012 51.7373 167.315 55.7356 159.248L35.4956 144.703L40.9496 137.115L60.3996 151.095C65.1857 143.782 71.1473 137.31 78.0436 131.94L64.1786 106.835L72.3586 102.318L85.7811 126.622C93.3291 122.067 101.592 118.818 110.221 117.013L103.745 71.5785L112.996 70.26L119.466 115.652C121.758 115.452 124.076 115.342 126.419 115.342H126.421C128.486 115.342 130.533 115.424 132.559 115.58L135.846 84.1925L145.139 85.165L141.822 116.85C148.391 118.148 154.768 120.278 160.797 123.19L169.982 104.821L178.339 109L168.966 127.746C173.372 130.559 177.49 133.798 181.261 137.417L204.526 111.359L211.497 117.582L187.644 144.301C191.811 149.364 195.33 154.926 198.122 160.859L214.607 149.673L219.854 157.405L201.657 169.753C203.611 175.702 204.841 181.864 205.321 188.106L215.118 186.511L216.619 195.735L205.474 197.549C205.246 202.964 204.457 208.341 203.121 213.594L243.571 181.659L215.451 178.811L242.468 136.097L212.603 140.723L232.537 88.9385L188.397 106.908L204.772 48.5325L156.362 104.061L147.819 20.057L126.462 74.1605L97.2741 10.0895L97.2736 10.091ZM126.419 124.687C87.9306 124.688 56.9221 155.697 56.9221 194.185C56.9221 210.759 62.6881 225.957 72.3136 237.928L7.04107 214.918H6.68457V246.161H80.0961L80.0981 246.163H94.8981C94.8971 246.163 94.8961 246.162 94.8951 246.161H95.6691L94.1341 245.62C79.9126 235.469 70.6441 218.832 70.6441 200.025C70.6441 169.169 95.5306 143.96 126.419 143.96C157.307 143.96 182.484 169.137 182.484 200.025C182.484 218.779 173.174 235.355 158.959 245.51L157.114 246.161H158.038L158.035 246.163H172.747C172.748 246.163 172.749 246.161 172.749 246.161H246.099V214.917H245.741L180.644 237.866C190.341 225.895 196.209 210.715 196.209 194.186C196.209 155.72 164.909 124.689 126.42 124.688H126.418L126.419 124.687Z" fill="black"/>
</svg>
