<svg width="320" height="224" viewBox="0 0 320 224" fill="none" xmlns="http://www.w3.org/2000/svg">
<path d="M317.455 61.44C228.87 -20.495 91.0945 -20.465 2.54446 61.44C-0.785544 64.52 -0.850544 69.735 2.36946 72.93L19.4895 89.915C22.5595 92.965 27.4995 93.03 30.6895 90.105C103.65 23.265 216.34 23.25 289.315 90.105C292.505 93.03 297.445 92.96 300.515 89.915L317.635 72.93C320.85 69.735 320.785 64.52 317.455 61.44ZM160 160C142.325 160 128 174.325 128 192C128 209.675 142.325 224 160 224C177.675 224 192 209.675 192 192C192 174.325 177.675 160 160 160ZM261.335 118.205C203.705 67.24 116.23 67.295 58.6645 118.205C55.2145 121.255 55.1045 126.55 58.3795 129.78L75.5995 146.775C78.5995 149.735 83.4295 149.935 86.6245 147.175C128.6 110.89 191.495 110.97 233.37 147.175C236.565 149.935 241.395 149.74 244.395 146.775L261.615 129.78C264.895 126.55 264.78 121.25 261.335 118.205Z" fill="black"/>
</svg>
