<svg width="49" height="48" viewBox="0 0 49 48" fill="none" xmlns="http://www.w3.org/2000/svg">
<path d="M24.5 19.2C27.0991 19.2 29.5918 18.1886 31.4296 16.3882C33.2675 14.5879 34.3 12.1461 34.3 9.6C34.3 7.05392 33.2675 4.61212 31.4296 2.81178C29.5918 1.01143 27.0991 0 24.5 0C21.9009 0 19.4082 1.01143 17.5704 2.81178C15.7325 4.61212 14.7 7.05392 14.7 9.6C14.7 12.1461 15.7325 14.5879 17.5704 16.3882C19.4082 18.1886 21.9009 19.2 24.5 19.2ZM8.575 26.4C10.1995 26.4 11.7574 25.7679 12.906 24.6426C14.0547 23.5174 14.7 21.9913 14.7 20.4C14.7 18.8087 14.0547 17.2826 12.906 16.1574C11.7574 15.0321 10.1995 14.4 8.575 14.4C6.95055 14.4 5.39263 15.0321 4.24397 16.1574C3.09531 17.2826 2.45 18.8087 2.45 20.4C2.45 21.9913 3.09531 23.5174 4.24397 24.6426C5.39263 25.7679 6.95055 26.4 8.575 26.4ZM46.55 20.4C46.55 21.9913 45.9047 23.5174 44.756 24.6426C43.6074 25.7679 42.0495 26.4 40.425 26.4C38.8005 26.4 37.2426 25.7679 36.094 24.6426C34.9453 23.5174 34.3 21.9913 34.3 20.4C34.3 18.8087 34.9453 17.2826 36.094 16.1574C37.2426 15.0321 38.8005 14.4 40.425 14.4C42.0495 14.4 43.6074 15.0321 44.756 16.1574C45.9047 17.2826 46.55 18.8087 46.55 20.4ZM24.5 21.6C27.7489 21.6 30.8647 22.8643 33.1621 25.1147C35.4594 27.3652 36.75 30.4174 36.75 33.6V48H12.25V33.6C12.25 30.4174 13.5406 27.3652 15.8379 25.1147C18.1353 22.8643 21.2511 21.6 24.5 21.6ZM7.35 33.6C7.35 31.9368 7.595 30.3312 8.0556 28.8144L7.6391 28.848C5.53915 29.0739 3.59823 30.0511 2.18849 31.5924C0.778761 33.1337 -0.000548209 35.1305 2.89339e-07 37.2V48H7.35V33.6ZM49 48V37.2C49.0003 35.0601 48.1668 33.0007 46.6697 31.4424C45.1727 29.884 43.1249 28.944 40.9444 28.8144C41.4025 30.3312 41.65 31.9368 41.65 33.6V48H49Z" fill="black"/>
</svg>
