<svg width="52" height="52" viewBox="0 0 52 52" fill="none" xmlns="http://www.w3.org/2000/svg">
<path d="M2 26H4.66667M26 2V4.66667M47.3333 26H50M8.93333 8.93333L10.8 10.8M43.0667 8.93333L41.2 10.8M19.8667 39.3333H32.1333M18 36.6667C15.7613 34.9876 14.1076 32.6467 13.2732 29.9756C12.4388 27.3044 12.4659 24.4385 13.3509 21.7836C14.2358 19.1288 15.9337 16.8197 18.2039 15.1834C20.4741 13.5472 23.2016 12.6667 26 12.6667C28.7984 12.6667 31.5259 13.5472 33.7961 15.1834C36.0663 16.8197 37.7642 19.1288 38.6491 21.7836C39.5341 24.4385 39.5613 27.3044 38.7268 29.9756C37.8924 32.6467 36.2387 34.9876 34 36.6667C32.9588 37.6973 32.1749 38.9585 31.7117 40.3483C31.2484 41.7381 31.1188 43.2175 31.3333 44.6667C31.3333 46.0812 30.7714 47.4377 29.7712 48.4379C28.771 49.4381 27.4145 50 26 50C24.5855 50 23.229 49.4381 22.2288 48.4379C21.2286 47.4377 20.6667 46.0812 20.6667 44.6667C20.8812 43.2175 20.7516 41.7381 20.2883 40.3483C19.8251 38.9585 19.0412 37.6973 18 36.6667Z" stroke="black" stroke-width="4" stroke-linecap="round" stroke-linejoin="round"/>
</svg>
